<svg width="203" height="142" viewBox="0 0 203 142" fill="none" xmlns="http://www.w3.org/2000/svg">
<line x1="2.07595" y1="4.19312" x2="13.7805" y2="-0.0669788" stroke="#E3F9F9" stroke-width="2"/>
<line x1="29.8498" y1="2.98101" x2="42.1163" y2="0.818104" stroke="#E3F9F9" stroke-width="2"/>
<line x1="155.801" y1="6.77813" x2="145.014" y2="0.550287" stroke="#E3F9F9" stroke-width="2"/>
<line x1="182.752" y1="7.84515" x2="173.21" y2="-0.161221" stroke="#E3F9F9" stroke-width="2"/>
<line x1="209.503" y1="8.50021" x2="201.497" y2="-1.04141" stroke="#E3F9F9" stroke-width="2"/>
<line x1="73.4766" y1="3.79785" x2="61.0209" y2="3.79785" stroke="#E3F9F9" stroke-width="2"/>
<line x1="101.186" y1="4.95063" x2="88.9193" y2="2.78772" stroke="#E3F9F9" stroke-width="2"/>
<line x1="128.623" y1="6.07251" x2="116.918" y2="1.81241" stroke="#E3F9F9" stroke-width="2"/>
<line x1="1.82635" y1="24.7779" x2="14.0928" y2="22.615" stroke="#E3F9F9" stroke-width="2"/>
<line x1="127.777" y1="28.575" x2="116.99" y2="22.3472" stroke="#E3F9F9" stroke-width="2"/>
<line x1="154.724" y1="29.643" x2="145.183" y2="21.6366" stroke="#E3F9F9" stroke-width="2"/>
<line x1="181.476" y1="30.2981" x2="173.47" y2="20.7564" stroke="#E3F9F9" stroke-width="2"/>
<line x1="208.068" y1="30.5449" x2="201.84" y2="19.758" stroke="#E3F9F9" stroke-width="2"/>
<line x1="45.4531" y1="25.5947" x2="32.9974" y2="25.5947" stroke="#E3F9F9" stroke-width="2"/>
<line x1="73.1623" y1="26.7475" x2="60.8958" y2="24.5846" stroke="#E3F9F9" stroke-width="2"/>
<line x1="100.599" y1="27.8704" x2="88.8949" y2="23.6103" stroke="#E3F9F9" stroke-width="2"/>
<line x1="99.75" y1="50.3729" x2="88.9631" y2="44.145" stroke="#E3F9F9" stroke-width="2"/>
<line x1="126.701" y1="51.4399" x2="117.159" y2="43.4335" stroke="#E3F9F9" stroke-width="2"/>
<line x1="153.453" y1="52.0959" x2="145.446" y2="42.5543" stroke="#E3F9F9" stroke-width="2"/>
<line x1="180.044" y1="52.3418" x2="173.816" y2="41.5548" stroke="#E3F9F9" stroke-width="2"/>
<line x1="206.517" y1="52.5735" x2="202.257" y2="40.8689" stroke="#E3F9F9" stroke-width="2"/>
<line x1="17.4258" y1="47.3926" x2="4.97009" y2="47.3926" stroke="#E3F9F9" stroke-width="2"/>
<line x1="45.1349" y1="48.5454" x2="32.8685" y2="46.3824" stroke="#E3F9F9" stroke-width="2"/>
<line x1="72.572" y1="49.6682" x2="60.8675" y2="45.4081" stroke="#E3F9F9" stroke-width="2"/>
<line x1="71.7266" y1="72.1697" x2="60.9396" y2="65.9419" stroke="#E3F9F9" stroke-width="2"/>
<line x1="98.6736" y1="73.2377" x2="89.132" y2="65.2314" stroke="#E3F9F9" stroke-width="2"/>
<line x1="125.425" y1="73.8928" x2="117.419" y2="64.3512" stroke="#E3F9F9" stroke-width="2"/>
<line x1="152.017" y1="74.1396" x2="145.789" y2="63.3527" stroke="#E3F9F9" stroke-width="2"/>
<line x1="178.494" y1="74.3703" x2="174.234" y2="62.6658" stroke="#E3F9F9" stroke-width="2"/>
<line x1="204.902" y1="74.5916" x2="202.739" y2="62.3251" stroke="#E3F9F9" stroke-width="2"/>
<line x1="17.1115" y1="70.3422" x2="4.84504" y2="68.1793" stroke="#E3F9F9" stroke-width="2"/>
<line x1="44.5486" y1="71.4651" x2="32.8441" y2="67.205" stroke="#E3F9F9" stroke-width="2"/>
<line x1="43.6992" y1="93.9676" x2="32.9123" y2="87.7397" stroke="#E3F9F9" stroke-width="2"/>
<line x1="70.6502" y1="95.0356" x2="61.1086" y2="87.0292" stroke="#E3F9F9" stroke-width="2"/>
<line x1="97.4019" y1="95.6906" x2="89.3956" y2="86.149" stroke="#E3F9F9" stroke-width="2"/>
<line x1="123.993" y1="95.9365" x2="117.766" y2="85.1496" stroke="#E3F9F9" stroke-width="2"/>
<line x1="150.467" y1="96.1682" x2="146.206" y2="84.4637" stroke="#E3F9F9" stroke-width="2"/>
<line x1="176.875" y1="96.3895" x2="174.712" y2="84.123" stroke="#E3F9F9" stroke-width="2"/>
<line x1="203.262" y1="96.2158" x2="203.262" y2="83.7601" stroke="#E3F9F9" stroke-width="2"/>
<line x1="16.5213" y1="93.2629" x2="4.81674" y2="89.0028" stroke="#E3F9F9" stroke-width="2"/>
<line x1="15.6758" y1="115.765" x2="4.88883" y2="109.538" stroke="#E3F9F9" stroke-width="2"/>
<line x1="42.6228" y1="116.832" x2="33.0812" y2="108.826" stroke="#E3F9F9" stroke-width="2"/>
<line x1="69.3746" y1="117.488" x2="61.3682" y2="107.946" stroke="#E3F9F9" stroke-width="2"/>
<line x1="95.966" y1="117.734" x2="89.7382" y2="106.947" stroke="#E3F9F9" stroke-width="2"/>
<line x1="122.443" y1="117.966" x2="118.183" y2="106.262" stroke="#E3F9F9" stroke-width="2"/>
<line x1="148.851" y1="118.186" x2="146.688" y2="105.92" stroke="#E3F9F9" stroke-width="2"/>
<line x1="175.238" y1="118.013" x2="175.238" y2="105.557" stroke="#E3F9F9" stroke-width="2"/>
<line x1="201.656" y1="117.839" x2="203.819" y2="105.573" stroke="#E3F9F9" stroke-width="2"/>
<line x1="200.131" y1="139.079" x2="204.391" y2="127.374" stroke="#E3F9F9" stroke-width="2"/>
<line x1="14.5994" y1="138.63" x2="5.05778" y2="130.624" stroke="#E3F9F9" stroke-width="2"/>
<line x1="41.3511" y1="139.285" x2="33.3448" y2="129.744" stroke="#E3F9F9" stroke-width="2"/>
<line x1="67.9426" y1="139.532" x2="61.7147" y2="128.745" stroke="#E3F9F9" stroke-width="2"/>
<line x1="94.4158" y1="139.763" x2="90.1557" y2="128.058" stroke="#E3F9F9" stroke-width="2"/>
<line x1="120.824" y1="139.984" x2="118.661" y2="127.718" stroke="#E3F9F9" stroke-width="2"/>
<line x1="147.211" y1="139.811" x2="147.211" y2="127.355" stroke="#E3F9F9" stroke-width="2"/>
<line x1="173.632" y1="139.637" x2="175.795" y2="127.37" stroke="#E3F9F9" stroke-width="2"/>
</svg>
